<?xml version="1.0" encoding="UTF-8"?>
<svg id="Layer_1" data-name="Layer 1" xmlns="http://www.w3.org/2000/svg" version="1.1" viewBox="0 0 506.9 775.4">
  <defs>
    <style>
      .cls-1 {
        fill: #163224;
      }

      .cls-1, .cls-2 {
        stroke-width: 0px;
      }

      .cls-2 {
        fill: #ecab2e;
      }
    </style>
  </defs>
  <g>
    <path class="cls-1" d="M219.7,464.1v171.1l280.7-280.2c4.1-4.1,6.5-9.7,6.5-15.5v-106.7c0-19.5-23.5-29.3-37.4-15.6l-249.8,247h0Z"/>
    <path class="cls-1" d="M0,127.9v107.5c0,5.8,2.3,11.4,6.5,15.5l213.3,212.9v-161.9c0-5.9-2.3-11.5-6.5-15.6L37.4,112.3c-13.9-13.7-37.4-3.9-37.4,15.6Z"/>
    <path class="cls-1" d="M0,470.4v107.5c0,5.8,2.3,11.4,6.5,15.5l175.8,175.5c13.8,13.8,37.5,4,37.5-15.5v-118.2L37.4,454.8C23.6,441.1,0,450.9,0,470.4h0Z"/>
  </g>
  <path class="cls-2" d="M320.4,152.2c11,117.3-75.2,117.3-64.2,0-117.3,11-117.3-75.2,0-64.2-11-117.3,75.2-117.3,64.2,0,117.3-11,117.3,75.2,0,64.2Z"/>
</svg>