<?xml version="1.0" encoding="UTF-8"?>
<svg id="Layer_1" data-name="Layer 1" xmlns="http://www.w3.org/2000/svg" version="1.1" viewBox="0 0 774.5 775.4">
  <defs>
    <style>
      .cls-1 {
        fill: #163224;
      }

      .cls-1, .cls-2, .cls-3 {
        stroke-width: 0px;
      }

      .cls-2 {
        fill: #fff;
      }

      .cls-3 {
        fill: #ecab2e;
      }
    </style>
  </defs>
  <rect class="cls-2" width="775.4" height="775.4" rx="118.2" ry="118.2"/>
  <g>
    <g>
      <path class="cls-1" d="M359.1,451.3v142.5l233.8-233.4c3.4-3.4,5.4-8.1,5.4-12.9v-88.9c0-16.2-19.6-24.4-31.1-13l-208,205.7h0Z"/>
      <path class="cls-1" d="M176.1,171.3v89.5c0,4.8,1.9,9.5,5.4,12.9l177.6,177.3v-134.8c0-4.9-1.9-9.6-5.4-13l-146.5-144.9c-11.6-11.4-31.1-3.2-31.1,13Z"/>
      <path class="cls-1" d="M176.1,456.6v89.5c0,4.8,1.9,9.5,5.4,12.9l146.4,146.2c11.5,11.5,31.2,3.3,31.2-12.9v-98.4l-151.9-150.2c-11.5-11.4-31.1-3.2-31.1,13h0Z"/>
    </g>
    <path class="cls-3" d="M443,191.6c9.2,97.7-62.6,97.7-53.5,0-97.7,9.2-97.7-62.6,0-53.5-9.2-97.7,62.6-97.7,53.5,0,97.7-9.2,97.7,62.6,0,53.5h0Z"/>
  </g>
</svg>