<svg width="13" height="11" viewBox="0 0 13 11" fill="none" xmlns="http://www.w3.org/2000/svg">
<path d="M11.9857 6.35507L7.66706 10.6737C7.53184 10.809 7.34844 10.8849 7.15721 10.8849C6.96598 10.8849 6.78259 10.809 6.64737 10.6737C6.51215 10.5385 6.43619 10.3551 6.43619 10.1639C6.43619 9.97268 6.51215 9.78928 6.64737 9.65406L9.73702 6.56561H0.91973C0.728833 6.56561 0.545754 6.48978 0.41077 6.35479C0.275785 6.21981 0.199951 6.03673 0.199951 5.84583C0.199951 5.65493 0.275785 5.47185 0.41077 5.33687C0.545754 5.20189 0.728833 5.12605 0.91973 5.12605H9.73702L6.64857 2.0358C6.51335 1.90058 6.43739 1.71719 6.43739 1.52596C6.43739 1.33473 6.51335 1.15133 6.64857 1.01612C6.78379 0.880897 6.96718 0.804932 7.15841 0.804932C7.34964 0.804932 7.53304 0.880897 7.66826 1.01612L11.9869 5.33479C12.054 5.40175 12.1073 5.48131 12.1435 5.5689C12.1798 5.65648 12.1984 5.75038 12.1983 5.84518C12.1982 5.93998 12.1794 6.03383 12.1429 6.12134C12.1064 6.20884 12.053 6.28827 11.9857 6.35507Z" fill="white"/>
</svg>
