<svg width="38" height="37" viewBox="0 0 38 37" fill="none" xmlns="http://www.w3.org/2000/svg">
<path d="M32.6042 21.9491V19.6497C32.5965 16.7985 31.709 14.0192 30.0628 11.6912C28.4167 9.36327 26.0922 7.60008 23.4067 6.6424V5.85342C23.4067 5.24359 23.1644 4.65874 22.7332 4.22752C22.302 3.7963 21.7171 3.55405 21.1073 3.55405H16.5085C15.8987 3.55405 15.3139 3.7963 14.8826 4.22752C14.4514 4.65874 14.2092 5.24359 14.2092 5.85342V6.6424C11.5236 7.60008 9.19914 9.36327 7.55301 11.6912C5.90689 14.0192 5.01938 16.7985 5.01166 19.6497V21.9491C4.40183 21.9491 3.81697 22.1913 3.38575 22.6225C2.95454 23.0538 2.71228 23.6386 2.71228 24.2485V27.6975C2.71228 28.3074 2.95454 28.8922 3.38575 29.3234C3.81697 29.7546 4.40183 29.9969 5.01166 29.9969H32.6042C33.214 29.9969 33.7989 29.7546 34.2301 29.3234C34.6613 28.8922 34.9036 28.3074 34.9036 27.6975V24.2485C34.9036 23.6386 34.6613 23.0538 34.2301 22.6225C33.7989 22.1913 33.214 21.9491 32.6042 21.9491ZM30.3048 19.6497V21.9491H23.4067V9.11136C25.4532 10.0117 27.1944 11.4867 28.4189 13.3574C29.6434 15.228 30.2985 17.4139 30.3048 19.6497ZM21.1073 5.85342V21.9491H16.5085V5.85342H21.1073ZM7.31104 19.6497C7.31734 17.4139 7.9725 15.228 9.197 13.3574C10.4215 11.4867 12.1627 10.0117 14.2092 9.11136V21.9491H7.31104V19.6497ZM32.6042 27.6975H5.01166V24.2485H32.6042V27.6975Z" fill="#ECAB2E"/>
</svg>
