<svg width="18" height="13" viewBox="0 0 18 13" fill="none" xmlns="http://www.w3.org/2000/svg">
<path d="M16.7732 7.70535C16.5884 7.56291 16.3765 7.45957 16.1505 7.40164C15.9244 7.3437 15.689 7.33237 15.4584 7.36834C16.7852 6.02879 17.4564 4.697 17.4564 3.39135C17.4564 1.5212 15.9523 6.62918e-05 14.1033 6.62918e-05C13.6127 -0.00301461 13.1274 0.101328 12.6814 0.305768C12.2354 0.510208 11.8396 0.809791 11.5217 1.18348C11.2038 0.809791 10.808 0.510208 10.362 0.305768C9.916 0.101328 9.43067 -0.00301461 8.94007 6.62918e-05C7.09111 6.62918e-05 5.58693 1.5212 5.58693 3.39135C5.58693 4.16852 5.81584 4.92379 6.29769 5.72286C5.90305 5.82284 5.54291 6.02794 5.25557 6.31634L3.65743 7.91307H1.63043C1.33062 7.91307 1.04309 8.03217 0.831095 8.24416C0.619098 8.45616 0.5 8.74369 0.5 9.0435L0.5 11.8696C0.5 12.1694 0.619098 12.4569 0.831095 12.6689C1.04309 12.8809 1.33062 13 1.63043 13H8.97822C9.02443 13 9.07047 12.9943 9.11528 12.983L13.637 11.8526C13.6658 11.8458 13.694 11.8363 13.7211 11.8244L16.4673 10.6558L16.4984 10.6416C16.7623 10.5098 16.9883 10.3129 17.1551 10.0695C17.3219 9.8261 17.424 9.54427 17.4518 9.25053C17.4796 8.95679 17.4321 8.66081 17.3139 8.39048C17.1957 8.12016 17.0106 7.88437 16.7761 7.70535H16.7732ZM8.94007 1.1305C9.37783 1.12409 9.80756 1.2484 10.1743 1.48752C10.541 1.72665 10.8281 2.06972 10.9989 2.47288C11.0414 2.57655 11.1139 2.66521 11.207 2.72761C11.3001 2.79001 11.4096 2.82333 11.5217 2.82333C11.6338 2.82333 11.7433 2.79001 11.8364 2.72761C11.9295 2.66521 12.0019 2.57655 12.0445 2.47288C12.2152 2.06972 12.5023 1.72665 12.8691 1.48752C13.2358 1.2484 13.6655 1.12409 14.1033 1.1305C15.3079 1.1305 16.326 2.16554 16.326 3.39135C16.326 4.76977 15.2104 6.32906 13.1 7.906L12.3165 8.08617C12.3853 7.79564 12.3874 7.49332 12.3227 7.20185C12.258 6.91039 12.1282 6.63735 11.943 6.40319C11.7578 6.16903 11.522 5.97984 11.2532 5.84978C10.9845 5.71972 10.6898 5.65218 10.3913 5.65221H7.61322C7.0035 4.82982 6.71736 4.10635 6.71736 3.39135C6.71736 2.16554 7.73545 1.1305 8.94007 1.1305ZM1.63043 9.0435H3.32607V11.8696H1.63043V9.0435ZM16.0031 9.62355L13.3184 10.7667L8.90757 11.8696H4.4565V8.71214L6.05535 7.114C6.15994 7.00857 6.28444 6.92499 6.42162 6.8681C6.5588 6.81122 6.70592 6.78217 6.85442 6.78264H10.3913C10.6161 6.78264 10.8318 6.87196 10.9908 7.03096C11.1498 7.18996 11.2391 7.40561 11.2391 7.63046C11.2391 7.85532 11.1498 8.07096 10.9908 8.22996C10.8318 8.38896 10.6161 8.47828 10.3913 8.47828H8.413C8.2631 8.47828 8.11933 8.53783 8.01334 8.64383C7.90734 8.74983 7.84779 8.89359 7.84779 9.0435C7.84779 9.1934 7.90734 9.33717 8.01334 9.44317C8.11933 9.54916 8.2631 9.60871 8.413 9.60871H10.6739C10.7164 9.60859 10.7588 9.60386 10.8003 9.59458L15.534 8.50584L15.5559 8.50019C15.7004 8.46007 15.8546 8.47481 15.9889 8.54157C16.1232 8.60834 16.2281 8.72241 16.2833 8.86183C16.3386 9.00125 16.3403 9.15618 16.2882 9.2968C16.2361 9.43742 16.1338 9.55381 16.001 9.62355H16.0031Z" fill="white"/>
</svg>
