<svg width="17" height="15" viewBox="0 0 17 15" fill="none" xmlns="http://www.w3.org/2000/svg">
<g clip-path="url(#clip0_175_549)">
<path d="M4.13281 15V4.87953H0.702508V15H4.13281ZM2.4181 3.49692C3.61431 3.49692 4.35889 2.71978 4.35889 1.74862C4.3366 0.755565 3.61436 0 2.4408 0C1.26743 0 0.500122 0.75558 0.500122 1.74862C0.500122 2.71983 1.24452 3.49692 2.39571 3.49692H2.418H2.4181ZM6.03147 15H9.46177V9.34824C9.46177 9.04576 9.48406 8.7436 9.57465 8.52738C9.82263 7.92304 10.3871 7.29712 11.3346 7.29712C12.5759 7.29712 13.0725 8.2252 13.0725 9.5857V14.9999H16.5026V9.19695C16.5026 6.08834 14.8103 4.64193 12.5533 4.64193C10.7028 4.64193 9.89033 5.65626 9.43895 6.34712H9.46185V4.87932H6.03155C6.07657 5.82897 6.03155 14.9998 6.03155 14.9998L6.03147 15Z" fill="#ECAB2E"/>
</g>
<defs>
<clipPath id="clip0_175_549">
<rect width="16" height="15" fill="white" transform="translate(0.500122)"/>
</clipPath>
</defs>
</svg>
