<svg width="38" height="33" viewBox="0 0 38 33" fill="none" xmlns="http://www.w3.org/2000/svg">
<path d="M36.53 9.88664L19.2846 0.689127C19.1183 0.600555 18.9327 0.55423 18.7443 0.55423C18.5558 0.55423 18.3703 0.600555 18.2039 0.689127L0.958585 9.88664C0.774641 9.98467 0.620808 10.1309 0.513541 10.3096C0.406274 10.4883 0.349609 10.6928 0.349609 10.9012C0.349609 11.1097 0.406274 11.3142 0.513541 11.4929C0.620808 11.6716 0.774641 11.8178 0.958585 11.9158L4.94801 14.0442V21.0027C4.94681 21.5674 5.15465 22.1126 5.53147 22.5332C7.41409 24.63 11.632 28.1466 18.7443 28.1466C21.1025 28.1661 23.4431 27.7389 25.6424 26.8877V31.5956C25.6424 31.9006 25.7635 32.193 25.9791 32.4086C26.1948 32.6242 26.4872 32.7453 26.7921 32.7453C27.097 32.7453 27.3894 32.6242 27.6051 32.4086C27.8207 32.193 27.9418 31.9006 27.9418 31.5956V25.7768C29.441 24.9113 30.7958 23.8169 31.9571 22.5332C32.3339 22.1126 32.5417 21.5674 32.5405 21.0027V14.0442L36.53 11.9158C36.7139 11.8178 36.8677 11.6716 36.975 11.4929C37.0823 11.3142 37.1389 11.1097 37.1389 10.9012C37.1389 10.6928 37.0823 10.4883 36.975 10.3096C36.8677 10.1309 36.7139 9.98467 36.53 9.88664ZM18.7443 25.8472C12.5259 25.8472 8.86845 22.8091 7.24738 21.0027V15.2701L18.2039 21.1134C18.3703 21.2019 18.5558 21.2483 18.7443 21.2483C18.9327 21.2483 19.1183 21.2019 19.2846 21.1134L25.6424 17.7232V24.3828C23.8316 25.2278 21.5495 25.8472 18.7443 25.8472ZM30.2412 20.9969C29.552 21.7617 28.7809 22.4484 27.9418 23.0448V16.4959L30.2412 15.2701V20.9969ZM27.3669 14.198L27.3353 14.1793L19.2875 9.88664C19.019 9.74949 18.7074 9.72331 18.4197 9.81374C18.1321 9.90416 17.8915 10.104 17.7498 10.3701C17.6081 10.6362 17.5765 10.9473 17.662 11.2365C17.7475 11.5256 17.9431 11.7696 18.2068 11.9158L24.9239 15.5L18.7443 18.7953L3.94203 10.9012L18.7443 3.00719L33.5465 10.9012L27.3669 14.198Z" fill="#ECAB2E"/>
</svg>
