<svg width="19" height="14" viewBox="0 0 19 14" fill="none" xmlns="http://www.w3.org/2000/svg">
<g clip-path="url(#clip0_175_553)">
<path d="M18.4999 1.7049C17.8258 1.98937 17.1109 2.1761 16.3788 2.25887C17.1414 1.82346 17.7269 1.13398 18.0026 0.312468C17.2777 0.722276 16.4846 1.01101 15.6576 1.1662C14.9839 0.482477 14.0242 0.0551758 12.962 0.0551758C10.9225 0.0551758 9.26897 1.63041 9.26897 3.57326C9.26897 3.84904 9.30167 4.11752 9.3646 4.37508C6.29546 4.22831 3.57436 2.82771 1.75292 0.699175C1.4351 1.21878 1.253 1.82319 1.253 2.46786C1.253 3.68848 1.905 4.76527 2.89585 5.39621C2.3094 5.37871 1.73587 5.22781 1.22311 4.95611C1.2229 4.97085 1.2229 4.98559 1.2229 5.00039C1.2229 6.70497 2.49584 8.12694 4.18517 8.45015C3.64136 8.59105 3.07095 8.61167 2.5175 8.51044C2.98739 9.90816 4.35125 10.9253 5.96717 10.9537C4.7033 11.8973 3.11093 12.4598 1.38082 12.4598C1.0827 12.4598 0.788792 12.4431 0.499878 12.4106C2.13415 13.4088 4.07527 13.9913 6.16074 13.9913C12.9534 13.9913 16.6678 8.63034 16.6678 3.98127C16.6678 3.82868 16.6643 3.67695 16.6571 3.5261C17.3801 3.02819 18.0041 2.41147 18.4999 1.7049Z" fill="#ECAB2E"/>
</g>
<defs>
<clipPath id="clip0_175_553">
<rect width="18" height="14" fill="white" transform="translate(0.499878)"/>
</clipPath>
</defs>
</svg>
