<svg width="36" height="26" viewBox="0 0 36 26" fill="none" xmlns="http://www.w3.org/2000/svg">
<path d="M34.5934 14.7191C34.4726 14.8097 34.3351 14.8756 34.1889 14.9131C34.0426 14.9506 33.8904 14.9588 33.741 14.9375C33.5915 14.9161 33.4477 14.8656 33.3178 14.7886C33.1879 14.7117 33.0744 14.61 32.9838 14.4892C32.2908 13.5577 31.3889 12.802 30.3505 12.2828C29.3121 11.7636 28.1664 11.4955 27.0054 11.5C26.7793 11.5 26.5583 11.4333 26.3699 11.3083C26.1815 11.1833 26.0342 11.0055 25.9463 10.7972C25.8866 10.6558 25.8558 10.5038 25.8558 10.3503C25.8558 10.1968 25.8866 10.0448 25.9463 9.90335C26.0342 9.69505 26.1815 9.51729 26.3699 9.3923C26.5583 9.2673 26.7793 9.20063 27.0054 9.20061C27.6505 9.20055 28.2826 9.01959 28.83 8.67828C29.3774 8.33696 29.8181 7.84898 30.1021 7.26976C30.386 6.69054 30.5018 6.0433 30.4364 5.40155C30.3709 4.7598 30.1268 4.14927 29.7318 3.63931C29.3367 3.12934 28.8066 2.74039 28.2015 2.51662C27.5965 2.29286 26.9408 2.24325 26.309 2.37344C25.6772 2.50363 25.0946 2.80839 24.6273 3.25311C24.16 3.69783 23.8268 4.26468 23.6656 4.88927C23.6278 5.03553 23.5616 5.17293 23.4708 5.29361C23.38 5.41429 23.2662 5.5159 23.1361 5.59264C23.006 5.66937 22.8621 5.71972 22.7125 5.74082C22.5629 5.76192 22.4106 5.75336 22.2644 5.71561C22.1181 5.67787 21.9807 5.61168 21.86 5.52084C21.7394 5.43 21.6378 5.31627 21.561 5.18616C21.4843 5.05605 21.4339 4.9121 21.4128 4.76252C21.3917 4.61295 21.4003 4.46069 21.438 4.31443C21.6619 3.4483 22.0848 2.64637 22.6731 1.97244C23.2614 1.29851 23.9989 0.77119 24.8268 0.43243C25.6548 0.0936711 26.5504 -0.0471743 27.4424 0.0211007C28.3343 0.0893758 29.1981 0.364887 29.9648 0.825712C30.7316 1.28654 31.3802 1.91996 31.8591 2.67557C32.338 3.43119 32.6339 4.28814 32.7233 5.17824C32.8127 6.06835 32.6931 6.96703 32.3741 7.8028C32.0551 8.63856 31.5454 9.38833 30.8856 9.99245C32.4489 10.6693 33.8079 11.7434 34.8276 13.1081C34.9182 13.2292 34.984 13.367 35.0213 13.5135C35.0585 13.6601 35.0665 13.8126 35.0447 13.9622C35.023 14.1119 34.9719 14.2557 34.8945 14.3856C34.817 14.5155 34.7147 14.6288 34.5934 14.7191ZM26.8502 23.5717C26.9334 23.7026 26.9893 23.8489 27.0144 24.0019C27.0396 24.1549 27.0335 24.3114 26.9966 24.462C26.9598 24.6126 26.8928 24.7542 26.7998 24.8783C26.7067 25.0023 26.5896 25.1063 26.4553 25.1839C26.3211 25.2615 26.1725 25.3111 26.0186 25.3298C25.8647 25.3485 25.7086 25.3359 25.5596 25.2927C25.4107 25.2495 25.2721 25.1766 25.1521 25.0784C25.032 24.9802 24.9331 24.8588 24.8612 24.7214C24.137 23.4951 23.1056 22.4788 21.8686 21.7727C20.6317 21.0667 19.2321 20.6954 17.8079 20.6954C16.3837 20.6954 14.9841 21.0667 13.7472 21.7727C12.5103 22.4788 11.4788 23.4951 10.7546 24.7214C10.6827 24.8588 10.5838 24.9802 10.4637 25.0784C10.3437 25.1766 10.2051 25.2495 10.0562 25.2927C9.90725 25.3359 9.75113 25.3485 9.59721 25.3298C9.44328 25.3111 9.29473 25.2615 9.16049 25.1839C9.02624 25.1063 8.90908 25.0023 8.81605 24.8783C8.72303 24.7542 8.65605 24.6126 8.61916 24.462C8.58227 24.3114 8.57623 24.1549 8.6014 24.0019C8.62656 23.8489 8.68242 23.7026 8.7656 23.5717C9.88022 21.6566 11.5797 20.1495 13.6144 19.2719C12.4695 18.3953 11.6281 17.182 11.2084 15.8025C10.7887 14.4229 10.8119 12.9466 11.2747 11.5809C11.7374 10.2152 12.6165 9.02892 13.7884 8.1887C14.9603 7.34849 16.366 6.89662 17.8079 6.89662C19.2499 6.89662 20.6556 7.34849 21.8274 8.1887C22.9993 9.02892 23.8784 10.2152 24.3411 11.5809C24.8039 12.9466 24.8271 14.4229 24.4074 15.8025C23.9877 17.182 23.1463 18.3953 22.0014 19.2719C24.0361 20.1495 25.7356 21.6566 26.8502 23.5717ZM17.8079 18.3981C18.7175 18.3981 19.6066 18.1284 20.3628 17.6231C21.1191 17.1178 21.7085 16.3995 22.0566 15.5592C22.4047 14.7189 22.4957 13.7943 22.3183 12.9022C22.1409 12.0101 21.7029 11.1907 21.0597 10.5476C20.4166 9.9044 19.5972 9.46641 18.7051 9.28897C17.813 9.11153 16.8884 9.2026 16.048 9.55067C15.2077 9.89873 14.4895 10.4882 13.9842 11.2444C13.4789 12.0007 13.2092 12.8898 13.2092 13.7994C13.2092 15.019 13.6937 16.1887 14.5561 17.0512C15.4185 17.9136 16.5882 18.3981 17.8079 18.3981ZM9.76008 10.3503C9.76008 10.0454 9.63895 9.75295 9.42335 9.53734C9.20774 9.32173 8.91531 9.20061 8.61039 9.20061C7.96531 9.20055 7.33318 9.01959 6.78579 8.67828C6.2384 8.33696 5.7977 7.84898 5.51375 7.26976C5.2298 6.69054 5.11397 6.0433 5.17943 5.40155C5.24489 4.7598 5.48901 4.14927 5.88406 3.63931C6.27911 3.12934 6.80926 2.74039 7.41428 2.51662C8.01931 2.29286 8.67496 2.24325 9.30677 2.37344C9.93857 2.50363 10.5212 2.80839 10.9885 3.25311C11.4558 3.69783 11.789 4.26468 11.9502 4.88927C12.0265 5.18466 12.2169 5.43767 12.4797 5.59264C12.7425 5.7476 13.056 5.79184 13.3514 5.71561C13.6468 5.63938 13.8998 5.44893 14.0548 5.18616C14.2098 4.92339 14.254 4.60981 14.1778 4.31443C13.9539 3.4483 13.531 2.64637 12.9427 1.97244C12.3544 1.29851 11.6169 0.77119 10.789 0.43243C9.96102 0.0936711 9.06543 -0.0471743 8.17345 0.0211007C7.28148 0.0893758 6.41775 0.364887 5.65099 0.825712C4.88423 1.28654 4.2356 1.91996 3.75672 2.67557C3.27784 3.43119 2.98192 4.28814 2.89251 5.17824C2.8031 6.06835 2.92267 6.96703 3.2417 7.8028C3.56072 8.63856 4.07041 9.38833 4.73019 9.99245C3.16846 10.67 1.81101 11.744 0.792508 13.1081C0.609367 13.352 0.53063 13.6587 0.573617 13.9607C0.616604 14.2627 0.777794 14.5353 1.02173 14.7184C1.26566 14.9015 1.57235 14.9803 1.87434 14.9373C2.17633 14.8943 2.44887 14.7331 2.63201 14.4892C3.32497 13.5577 4.22694 12.802 5.26531 12.2828C6.30369 11.7636 7.44946 11.4955 8.61039 11.5C8.91531 11.5 9.20774 11.3789 9.42335 11.1632C9.63895 10.9476 9.76008 10.6552 9.76008 10.3503Z" fill="#ECAB2E"/>
</svg>
